<svg xmlns="http://www.w3.org/2000/svg" width="103" height="103" viewBox="0 0 103 103">
    <g fill="none" fill-rule="evenodd">
        <path d="M21.25 85h20a1.25 1.25 0 1 1 0 2.5h-20a1.25 1.25 0 1 1 0-2.5m0-5h20a1.25 1.25 0 1 1 0 2.5h-20a1.25 1.25 0 1 1 0-2.5m0-5h20a1.25 1.25 0 1 1 0 2.5h-20a1.25 1.25 0 1 1 0-2.5m-15 15h50A3.754 3.754 0 0 0 60 86.25H47.5a2.502 2.502 0 0 1-2.5-2.5v-5c0-1.379 1.121-2.5 2.5-2.5H60a3.754 3.754 0 0 0-3.75-3.75h-50a3.754 3.754 0 0 0-3.75 3.75H15c1.379 0 2.5 1.121 2.5 2.5v5c0 1.379-1.121 2.5-2.5 2.5H2.5A3.754 3.754 0 0 0 6.25 90M47.5 98.75c0 .688.562 1.25 1.25 1.25h5c.688 0 1.25-.562 1.25-1.25V92.5h-7.5v6.25zM7.5 98.75c0 .688.562 1.25 1.25 1.25h5c.688 0 1.25-.562 1.25-1.25V92.5H7.5v6.25z"/>
        <path fill="#ED0" d="M2.5 83.75H15v-5H2.5zM47.5 83.75H60v-5H47.5z"/>
        <path d="M50.984 55.34a3.743 3.743 0 0 0-3.638-2.84H15.154a3.744 3.744 0 0 0-3.638 2.84L7.852 70h46.797l-3.665-14.66z"/>
        <path fill="#ED0" d="M72.5 16.282v5c0 .688.562 1.25 1.25 1.25h3.75v-7.5h-3.75c-.688 0-1.25.562-1.25 1.25M80 32.532h3.75c.688 0 1.25-.562 1.25-1.25v-5c0-.688-.562-1.25-1.25-1.25H80v7.5z"/>
        <path fill="#ED0" d="M87.5 18.782a1.25 1.25 0 1 1-2.5 0v-2.5c0-.688-.562-1.25-1.25-1.25H80v7.5h3.75a3.754 3.754 0 0 1 3.75 3.75v5a3.754 3.754 0 0 1-3.75 3.75H80v3.75a1.25 1.25 0 1 1-2.5 0v-3.75h-3.75a3.754 3.754 0 0 1-3.75-3.75v-2.5a1.25 1.25 0 1 1 2.5 0v2.5c0 .688.562 1.25 1.25 1.25h3.75v-7.5h-3.75a3.754 3.754 0 0 1-3.75-3.75v-5a3.754 3.754 0 0 1 3.75-3.75h3.75v-3.75a1.25 1.25 0 1 1 2.5 0v3.75h3.75a3.754 3.754 0 0 1 3.75 3.75v2.5zM78.75 2.5c-11.716 0-21.25 9.534-21.25 21.25 0 4.053 1.138 7.969 3.289 11.326.202.317.253.71.134 1.067l-2.7 8.135 8.134-2.701c.472-.158.865.003 1.067.135C70.781 43.862 74.697 45 78.75 45 90.466 45 100 35.467 100 23.75 100 12.034 90.466 2.5 78.75 2.5z"/>
        <path fill="#515151" d="M78.75 45c-4.053 0-7.969-1.138-11.326-3.289a1.235 1.235 0 0 0-1.067-.134l-8.134 2.7 2.7-8.134c.119-.357.068-.75-.134-1.067-2.151-3.357-3.289-7.273-3.289-11.326 0-11.716 9.534-21.25 21.25-21.25S100 12.034 100 23.75 90.466 45 78.75 45m0-45C65.654 0 55 10.654 55 23.75c0 4.329 1.162 8.521 3.364 12.163l-3.301 9.944a1.252 1.252 0 0 0 1.58 1.58l9.944-3.301c3.642 2.202 7.834 3.364 12.163 3.364 13.096 0 23.75-10.654 23.75-23.75S91.846 0 78.75 0"/>
        <path fill="#515151" d="M83.75 25.032c.688 0 1.25.562 1.25 1.25v5c0 .688-.562 1.25-1.25 1.25H80v-7.5h3.75zm-6.25-2.5h-3.75c-.688 0-1.25-.562-1.25-1.25v-5c0-.688.562-1.25 1.25-1.25h3.75v7.5zm6.25-10H80v-3.75a1.25 1.25 0 1 0-2.5 0v3.75h-3.75a3.754 3.754 0 0 0-3.75 3.75v5a3.754 3.754 0 0 0 3.75 3.75h3.75v7.5h-3.75c-.688 0-1.25-.562-1.25-1.25v-2.5a1.25 1.25 0 1 0-2.5 0v2.5a3.754 3.754 0 0 0 3.75 3.75h3.75v3.75a1.25 1.25 0 1 0 2.5 0v-3.75h3.75a3.754 3.754 0 0 0 3.75-3.75v-5a3.754 3.754 0 0 0-3.75-3.75H80v-7.5h3.75c.688 0 1.25.562 1.25 1.25v2.5a1.25 1.25 0 1 0 2.5 0v-2.5a3.754 3.754 0 0 0-3.75-3.75zM15 86.25c1.379 0 2.5-1.121 2.5-2.5v-5c0-1.379-1.121-2.5-2.5-2.5H2.5a3.754 3.754 0 0 1 3.75-3.75h50A3.754 3.754 0 0 1 60 76.25H47.5a2.502 2.502 0 0 0-2.5 2.5v5c0 1.379 1.121 2.5 2.5 2.5H60A3.754 3.754 0 0 1 56.25 90h-50a3.754 3.754 0 0 1-3.75-3.75H15zm-12.5-2.5H15v-5H2.5v5zm9.016-28.411a3.744 3.744 0 0 1 3.638-2.839h32.192a3.744 3.744 0 0 1 3.638 2.839L54.648 70H7.852l3.664-14.661zM47.5 83.75H60v-5H47.5v5zm7.5 15c0 .688-.562 1.25-1.25 1.25h-5c-.688 0-1.25-.562-1.25-1.25V92.5H55v6.25zm-40 0c0 .688-.562 1.25-1.25 1.25h-5c-.688 0-1.25-.562-1.25-1.25V92.5H15v6.25zM5 92.374v6.376a3.754 3.754 0 0 0 3.75 3.75h5a3.754 3.754 0 0 0 3.75-3.75V92.5H45v6.25a3.754 3.754 0 0 0 3.75 3.75h5a3.754 3.754 0 0 0 3.75-3.75v-6.376c2.85-.581 5-3.104 5-6.124v-10c0-3.107-2.279-5.683-5.251-6.163l-3.838-15.353A6.243 6.243 0 0 0 47.346 50H15.154a6.243 6.243 0 0 0-6.065 4.734L5.251 70.087C2.279 70.567 0 73.143 0 76.25v10c0 3.02 2.15 5.543 5 6.124z"/>
        <path fill="#515151" d="M21.25 87.5h20a1.25 1.25 0 1 0 0-2.5h-20a1.25 1.25 0 1 0 0 2.5M21.25 82.5h20a1.25 1.25 0 1 0 0-2.5h-20a1.25 1.25 0 1 0 0 2.5M21.25 77.5h20a1.25 1.25 0 1 0 0-2.5h-20a1.25 1.25 0 1 0 0 2.5"/>
    </g>
</svg>
