<svg xmlns="http://www.w3.org/2000/svg" width="98" height="88" viewBox="0 0 98 88">
    <g fill="none" fill-rule="evenodd">
        <path d="M76.25 32.5a3.754 3.754 0 0 0-3.75 3.75A3.754 3.754 0 0 0 76.25 40 3.754 3.754 0 0 0 80 36.25a3.754 3.754 0 0 0-3.75-3.75M66.25 20A3.754 3.754 0 0 0 70 16.25a3.754 3.754 0 0 0-3.75-3.75 3.754 3.754 0 0 0-3.75 3.75A3.754 3.754 0 0 0 66.25 20"/>
        <path fill="#ED0" d="M82.134 17.134l-20 20a1.25 1.25 0 0 1-1.768-1.768l20-20a1.25 1.25 0 0 1 1.768 1.768M76.25 42.5A6.256 6.256 0 0 1 70 36.25 6.256 6.256 0 0 1 76.25 30a6.256 6.256 0 0 1 6.25 6.25 6.256 6.256 0 0 1-6.25 6.25m-10-32.5a6.256 6.256 0 0 1 6.25 6.25 6.256 6.256 0 0 1-6.25 6.25A6.256 6.256 0 0 1 60 16.25 6.256 6.256 0 0 1 66.25 10m5-7.5C58.155 2.5 47.5 13.155 47.5 26.25 47.5 39.346 58.155 50 71.25 50 84.346 50 95 39.346 95 26.25 95 13.155 84.346 2.5 71.25 2.5M11.25 75a6.26 6.26 0 0 1 6.124 5h12.752c.58-2.85 3.105-5 6.124-5a6.26 6.26 0 0 1 6.124 5H45v-7.5H2.5V80h2.626c.58-2.85 3.105-5 6.124-5"/>
        <path d="M30.823 63.19a1.239 1.239 0 0 0-1.118-.69h-16.91c-.478 0-.905.264-1.118.689l-3.404 6.81h25.954l-3.404-6.808zM36.25 77.5a3.754 3.754 0 0 0-3.75 3.75A3.754 3.754 0 0 0 36.25 85 3.754 3.754 0 0 0 40 81.25a3.754 3.754 0 0 0-3.75-3.75"/>
        <path d="M0 72.5C0 71.121 1.121 70 2.5 70h2.979l3.962-7.927A3.73 3.73 0 0 1 12.795 60h16.91c1.43 0 2.717.796 3.354 2.075L37.021 70H45c1.379 0 2.5 1.121 2.5 2.5V80c0 1.379-1.121 2.5-2.5 2.5h-2.626a6.26 6.26 0 0 1-6.124 5 6.258 6.258 0 0 1-6.124-5H17.374a6.26 6.26 0 0 1-6.124 5 6.258 6.258 0 0 1-6.124-5H2.5A2.502 2.502 0 0 1 0 80v-7.5zM6.25 100h35c4.824 0 8.75-3.926 8.75-8.75v-35c0-4.824-3.926-8.75-8.75-8.75h-35c-4.824 0-8.75 3.926-8.75 8.75v35c0 4.824 3.926 8.75 8.75 8.75z"/>
        <path d="M11.25 77.5a3.754 3.754 0 0 0-3.75 3.75A3.754 3.754 0 0 0 11.25 85 3.754 3.754 0 0 0 15 81.25a3.754 3.754 0 0 0-3.75-3.75"/>
        <path fill="#515151" d="M2.5 72.5H45V80h-2.626a6.26 6.26 0 0 0-6.124-5 6.258 6.258 0 0 0-6.124 5H17.374a6.26 6.26 0 0 0-6.124-5 6.258 6.258 0 0 0-6.124 5H2.5v-7.5zm9.177-9.312c.213-.424.64-.688 1.118-.688h16.91c.478 0 .905.264 1.118.691L34.227 70H8.272l3.405-6.812zM36.25 85a3.754 3.754 0 0 1-3.75-3.75 3.754 3.754 0 0 1 3.75-3.75A3.754 3.754 0 0 1 40 81.25 3.754 3.754 0 0 1 36.25 85zm-25 0a3.754 3.754 0 0 1-3.75-3.75 3.754 3.754 0 0 1 3.75-3.75A3.754 3.754 0 0 1 15 81.25 3.754 3.754 0 0 1 11.25 85zM2.5 82.5h2.626c.58 2.85 3.105 5 6.124 5a6.26 6.26 0 0 0 6.124-5h12.752c.58 2.85 3.105 5 6.124 5a6.26 6.26 0 0 0 6.124-5H45c1.379 0 2.5-1.121 2.5-2.5v-7.5c0-1.379-1.121-2.5-2.5-2.5h-7.979l-3.962-7.925A3.728 3.728 0 0 0 29.705 60h-16.91a3.73 3.73 0 0 0-3.354 2.073L5.479 70H2.5A2.502 2.502 0 0 0 0 72.5V80c0 1.379 1.121 2.5 2.5 2.5zM71.25 50C58.154 50 47.5 39.346 47.5 26.25S58.154 2.5 71.25 2.5 95 13.154 95 26.25 84.346 50 71.25 50m0-50C56.775 0 45 11.775 45 26.25S56.775 52.5 71.25 52.5 97.5 40.725 97.5 26.25 85.725 0 71.25 0"/>
        <path fill="#515151" d="M80.366 15.366l-20 20a1.25 1.25 0 0 0 1.768 1.768l20-20a1.25 1.25 0 0 0-1.768-1.768M66.25 12.5A3.754 3.754 0 0 1 70 16.25 3.754 3.754 0 0 1 66.25 20a3.754 3.754 0 0 1-3.75-3.75 3.754 3.754 0 0 1 3.75-3.75m0 10a6.256 6.256 0 0 0 6.25-6.25A6.256 6.256 0 0 0 66.25 10 6.256 6.256 0 0 0 60 16.25a6.256 6.256 0 0 0 6.25 6.25M76.25 40a3.754 3.754 0 0 1-3.75-3.75 3.754 3.754 0 0 1 3.75-3.75A3.754 3.754 0 0 1 80 36.25 3.754 3.754 0 0 1 76.25 40m0-10A6.256 6.256 0 0 0 70 36.25a6.256 6.256 0 0 0 6.25 6.25 6.256 6.256 0 0 0 6.25-6.25A6.256 6.256 0 0 0 76.25 30"/>
        <path fill="#43484D" d="M21.25 42.5a1.25 1.25 0 0 0 1.25-1.25v-7.5a6.256 6.256 0 0 1 6.25-6.25h12.5a1.25 1.25 0 1 0 0-2.5h-12.5C23.926 25 20 28.926 20 33.75v7.5c0 .691.559 1.25 1.25 1.25M63.75 77.5c4.824 0 8.75-3.926 8.75-8.75v-12.5a1.25 1.25 0 1 0-2.5 0v12.5A6.256 6.256 0 0 1 63.75 75h-7.5a1.25 1.25 0 1 0 0 2.5h7.5z"/>
    </g>
</svg>
